STARTFONT 2.1
FONT -FontForge-Satisfy-Book-R-Normal--32-320-72-72-P-139-ISO10646-1
SIZE 32 72 72
FONTBOUNDINGBOX 37 46 -7 -16
COMMENT "Generated by fontforge, http://fontforge.sourceforge.net"
COMMENT "Copyright (c) 2011 by Font Diner, Inc. All rights reserved."
STARTPROPERTIES 39
FOUNDRY "FontForge"
FAMILY_NAME "Satisfy"
WEIGHT_NAME "Book"
SLANT "R"
SETWIDTH_NAME "Normal"
ADD_STYLE_NAME ""
PIXEL_SIZE 32
POINT_SIZE 320
RESOLUTION_X 72
RESOLUTION_Y 72
SPACING "P"
AVERAGE_WIDTH 139
CHARSET_REGISTRY "ISO10646"
CHARSET_ENCODING "1"
FONTNAME_REGISTRY ""
CHARSET_COLLECTIONS "ISO10646-1"
FONT_NAME "Satisfy-Regular"
FACE_NAME "Satisfy Regular"
COPYRIGHT "Copyright (c) 2011 by Font Diner, Inc. All rights reserved."
FONT_VERSION "1.001"
FONT_ASCENT 26
FONT_DESCENT 6
UNDERLINE_POSITION -3
UNDERLINE_THICKNESS 2
X_HEIGHT 12
CAP_HEIGHT 23
RAW_ASCENT 799
RAW_DESCENT 200
NORM_SPACE 9
RELATIVE_WEIGHT 40
RELATIVE_SETWIDTH 50
SUPERSCRIPT_X 0
SUPERSCRIPT_Y 15
SUPERSCRIPT_SIZE 20
SUBSCRIPT_X 0
SUBSCRIPT_Y 4
SUBSCRIPT_SIZE 20
AVG_LOWERCASE_WIDTH 132
AVG_UPPERCASE_WIDTH 181
ENDPROPERTIES
CHARS 227
STARTCHAR space
ENCODING 32
SWIDTH 280 0
DWIDTH 9 0
BBX 1 1 0 0
BITMAP
00
ENDCHAR
STARTCHAR exclam
ENCODING 33
SWIDTH 249 0
DWIDTH 8 0
BBX 10 25 -1 -1
BITMAP
00C0
0380
0380
0380
0780
0700
0700
0700
0700
0E00
0E00
0E00
0C00
1C00
1C00
1C00
1800
1800
3800
3000
0000
0000
7800
F000
6000
ENDCHAR
STARTCHAR quotedbl
ENCODING 34
SWIDTH 249 0
DWIDTH 8 0
BBX 9 10 1 14
BITMAP
0880
3980
3380
3380
7300
7300
6700
6600
E600
E600
ENDCHAR
STARTCHAR numbersign
ENCODING 35
SWIDTH 417 0
DWIDTH 13 0
BBX 15 16 -1 4
BITMAP
018C
019C
0318
0318
1FFE
3FFE
3630
0660
0C60
0FF0
7FFC
F8C0
18C0
19C0
3980
3180
ENDCHAR
STARTCHAR dollar
ENCODING 36
SWIDTH 292 0
DWIDTH 9 0
BBX 12 23 -1 0
BITMAP
0080
0180
03C0
0FE0
1C60
1860
1870
1860
18E0
1C00
0C00
0E00
0E00
0700
0300
4300
C300
C300
C300
6600
3C00
3000
3000
ENDCHAR
STARTCHAR percent
ENCODING 37
SWIDTH 574 0
DWIDTH 18 0
BBX 19 25 0 -1
BITMAP
000020
0F00C0
1D8180
398380
30C700
31C600
618C00
619C00
619800
733000
3E7000
1C6000
00C000
01C600
019F00
033980
073180
066180
0C6180
1C6180
386300
306300
706600
E03C00
801000
ENDCHAR
STARTCHAR ampersand
ENCODING 38
SWIDTH 460 0
DWIDTH 15 0
BBX 16 26 -2 -2
BITMAP
001C
003E
0066
00C6
00C6
01CC
01D8
01F8
01F0
01E0
01C0
03C0
07C0
0FC0
1DC0
39C0
79C0
70E0
60E3
E0E6
E0EC
70F8
7DF0
3FF8
1E7C
0020
ENDCHAR
STARTCHAR quotesingle
ENCODING 39
SWIDTH 113 0
DWIDTH 4 0
BBX 5 10 1 14
BITMAP
08
38
30
30
70
70
60
60
E0
E0
ENDCHAR
STARTCHAR parenleft
ENCODING 40
SWIDTH 234 0
DWIDTH 8 0
BBX 9 31 1 -4
BITMAP
0080
0080
0380
0300
0600
0E00
0C00
1C00
1800
3800
3000
3000
7000
6000
6000
6000
E000
E000
C000
C000
C000
C000
C000
C000
C000
C000
C000
C000
6000
4000
2000
ENDCHAR
STARTCHAR parenright
ENCODING 41
SWIDTH 204 0
DWIDTH 7 0
BBX 10 31 -4 -4
BITMAP
0100
0180
0180
00C0
00C0
00C0
00C0
00C0
00C0
00C0
00C0
00C0
01C0
01C0
01C0
0180
0180
0380
0300
0300
0700
0600
0600
0E00
0C00
1C00
1800
3000
7000
6000
8000
ENDCHAR
STARTCHAR asterisk
ENCODING 42
SWIDTH 327 0
DWIDTH 10 0
BBX 10 10 2 13
BITMAP
0F00
4E00
CE00
ECC0
7FC0
0FC0
3600
F700
E780
6300
ENDCHAR
STARTCHAR plus
ENCODING 43
SWIDTH 350 0
DWIDTH 11 0
BBX 11 11 0 6
BITMAP
0300
0700
0600
0600
7FE0
FFE0
EC00
0C00
0C00
1C00
1800
ENDCHAR
STARTCHAR comma
ENCODING 44
SWIDTH 200 0
DWIDTH 6 0
BBX 4 6 -1 -4
BITMAP
F0
F0
F0
20
60
80
ENDCHAR
STARTCHAR hyphen
ENCODING 45
SWIDTH 353 0
DWIDTH 11 0
BBX 12 3 -1 8
BITMAP
7FF0
7FF0
8000
ENDCHAR
STARTCHAR period
ENCODING 46
SWIDTH 213 0
DWIDTH 7 0
BBX 4 3 -1 -1
BITMAP
70
F0
E0
ENDCHAR
STARTCHAR slash
ENCODING 47
SWIDTH 262 0
DWIDTH 8 0
BBX 15 25 -3 -1
BITMAP
0002
000E
000C
001C
0018
0030
0030
0060
00E0
00C0
01C0
0180
0300
0300
0600
0600
0C00
1C00
1800
3800
3000
7000
6000
E000
8000
ENDCHAR
STARTCHAR zero
ENCODING 48
SWIDTH 489 0
DWIDTH 16 0
BBX 13 25 1 -1
BITMAP
0040
03E0
07F0
0E38
0C18
1C18
1818
3818
3018
7018
7018
7018
E038
E038
E038
E030
E070
E070
E0E0
E0E0
E1C0
6180
7380
3E00
1800
ENDCHAR
STARTCHAR one
ENCODING 49
SWIDTH 272 0
DWIDTH 9 0
BBX 8 23 0 0
BITMAP
07
0F
1F
0F
06
0E
0E
0E
0C
0C
1C
1C
18
18
18
38
30
30
70
70
70
70
F0
ENDCHAR
STARTCHAR two
ENCODING 50
SWIDTH 448 0
DWIDTH 14 0
BBX 15 25 -1 -1
BITMAP
0010
01FC
031E
070E
0E0E
0E0E
0E0E
0E1C
001C
0018
0038
0070
0060
00E0
01C0
0380
0700
0E00
1C00
3800
7000
EFE0
FFF0
7FF0
6010
ENDCHAR
STARTCHAR three
ENCODING 51
SWIDTH 462 0
DWIDTH 15 0
BBX 14 25 0 -1
BITMAP
00C0
07F8
0F1C
1C1C
1C0C
381C
381C
1E1C
0038
0070
00E0
01C0
0F80
07E0
0470
0030
0030
0030
0070
6070
E0E0
E0E0
FBC0
7F80
1E00
ENDCHAR
STARTCHAR four
ENCODING 52
SWIDTH 452 0
DWIDTH 14 0
BBX 14 24 0 -1
BITMAP
003C
0078
00F8
01D8
0398
0330
0730
0E30
1C30
3860
7060
E070
FFF8
FFF8
40F0
00C0
01C0
01C0
01C0
01C0
03C0
03C0
03C0
0100
ENDCHAR
STARTCHAR five
ENCODING 53
SWIDTH 444 0
DWIDTH 14 0
BBX 15 24 0 -1
BITMAP
03FE
07FE
067E
0C04
0C00
0C00
1800
1800
1800
33E0
37F0
3C70
3830
1030
0030
0030
0060
2060
60E0
E0C0
F380
FF00
7E00
3C00
ENDCHAR
STARTCHAR six
ENCODING 54
SWIDTH 477 0
DWIDTH 15 0
BBX 13 25 1 -1
BITMAP
0020
01F0
03B8
0738
0E38
0C30
1C60
1800
3800
33C0
77E0
7E70
7C30
F830
F830
E070
E070
E070
E060
E0E0
60C0
71C0
7380
3F00
0C00
ENDCHAR
STARTCHAR seven
ENCODING 55
SWIDTH 406 0
DWIDTH 13 0
BBX 12 23 2 0
BITMAP
7FF0
7FF0
7030
4070
0060
00C0
01C0
0380
0300
0700
0600
0E00
1C00
1C00
3800
3800
7000
7000
7000
E000
E000
E000
E000
ENDCHAR
STARTCHAR eight
ENCODING 56
SWIDTH 444 0
DWIDTH 14 0
BBX 14 25 0 -1
BITMAP
0020
01F8
030C
060C
0E0C
0E0C
0E18
0E38
0E70
0FE0
07C0
0780
0F80
1DC0
39C0
70E0
60E0
E0E0
C0E0
C0E0
C0E0
C0C0
E3C0
7F00
3C00
ENDCHAR
STARTCHAR nine
ENCODING 57
SWIDTH 462 0
DWIDTH 15 0
BBX 13 25 1 -1
BITMAP
0080
03E0
0E30
0C30
1C18
3818
3018
3018
7038
7078
6078
60F0
60F0
71B0
71B0
3F60
1C60
00E0
00C0
81C0
C380
C700
FE00
FC00
3000
ENDCHAR
STARTCHAR colon
ENCODING 58
SWIDTH 226 0
DWIDTH 7 0
BBX 6 10 -1 -1
BITMAP
1C
3C
38
00
00
00
00
70
F0
E0
ENDCHAR
STARTCHAR semicolon
ENCODING 59
SWIDTH 212 0
DWIDTH 7 0
BBX 6 13 -1 -4
BITMAP
38
7C
78
00
00
00
00
F0
F0
F0
20
60
80
ENDCHAR
STARTCHAR less
ENCODING 60
SWIDTH 271 0
DWIDTH 9 0
BBX 10 13 0 4
BITMAP
00C0
0780
0F00
1C00
3800
7000
E000
E000
6000
7000
3800
3800
1C00
ENDCHAR
STARTCHAR equal
ENCODING 61
SWIDTH 374 0
DWIDTH 12 0
BBX 12 7 0 7
BITMAP
3FF0
7FF0
4000
0000
7FE0
FFC0
8000
ENDCHAR
STARTCHAR greater
ENCODING 62
SWIDTH 250 0
DWIDTH 8 0
BBX 10 13 -2 4
BITMAP
1C00
0E00
0E00
0700
0300
0380
01C0
03C0
0780
0E00
1C00
3800
F000
ENDCHAR
STARTCHAR question
ENCODING 63
SWIDTH 413 0
DWIDTH 13 0
BBX 15 25 0 -1
BITMAP
00E0
07F8
1E1C
3C0E
380E
380E
380E
001C
001C
0038
0070
00E0
07C0
1F00
1800
3800
3800
3800
3000
7000
0000
0000
F000
F000
E000
ENDCHAR
STARTCHAR at
ENCODING 64
SWIDTH 648 0
DWIDTH 21 0
BBX 21 22 -1 -1
BITMAP
000800
00FF80
03C0C0
070060
0E0830
1C3F30
386798
30C798
718F18
630B18
E30618
E60618
C60618
C60C38
C61C30
E77870
63F860
7018C0
381F80
1C1F00
078000
008000
ENDCHAR
STARTCHAR A
ENCODING 65
SWIDTH 552 0
DWIDTH 18 0
BBX 20 32 -4 -8
BITMAP
000040
0003F0
0007F0
000E30
001C30
001870
003870
003060
007060
006060
00E0E0
00E0E0
00C0E0
01C0C0
01C0C0
0381C0
0381C0
03FFF0
1FFFE0
7F01C0
070380
0F0380
0E0380
0E0380
1E0380
1E0380
3C0380
3C0380
780380
E003C0
0003C0
000200
ENDCHAR
STARTCHAR B
ENCODING 66
SWIDTH 607 0
DWIDTH 19 0
BBX 19 30 0 -6
BITMAP
00D000
01FF00
0FC380
1F81C0
1F81C0
1B81E0
0301E0
0701C0
0701C0
0603C0
060380
0E0700
0E0E00
0C1C00
1FF800
1FFC00
1F8E00
180700
380700
380380
380780
700780
700700
700F00
700F00
F01E00
E03C00
E0F800
FFE000
3F8000
ENDCHAR
STARTCHAR C
ENCODING 67
SWIDTH 548 0
DWIDTH 18 0
BBX 18 30 0 -6
BITMAP
000C00
007F00
00E380
03C180
0381C0
0701C0
0E03C0
0E03C0
1C0380
1C0F80
3C0700
380200
780000
780000
700000
700000
F00000
F00000
F00000
E00000
E00000
E00000
E00000
E00400
700C00
701800
783800
3FF000
1FC000
070000
ENDCHAR
STARTCHAR D
ENCODING 68
SWIDTH 632 0
DWIDTH 20 0
BBX 19 30 0 -6
BITMAP
004000
07FC00
0FFE00
1E0700
080380
1101C0
0781C0
0701E0
0700E0
0700E0
0700E0
0F00E0
0E00E0
0E00E0
0E01E0
0E01E0
1C01C0
1C01C0
1C03C0
1C0380
380780
380700
380F00
300E00
701C00
703800
F07000
F1E000
7F8000
1E0000
ENDCHAR
STARTCHAR E
ENCODING 69
SWIDTH 523 0
DWIDTH 17 0
BBX 18 30 -1 -6
BITMAP
000600
007F80
01E1C0
03C0C0
0780C0
0701C0
0F01C0
0E03C0
1E0380
1E0F00
1E0000
0E0000
0E0000
070000
03F000
03F000
0E6000
1C0000
380000
700000
700000
E00100
E00200
E00600
F00600
F00C00
781800
3FF000
1FE000
078000
ENDCHAR
STARTCHAR F
ENCODING 70
SWIDTH 585 0
DWIDTH 19 0
BBX 17 30 1 -6
BITMAP
000800
07FF00
1F8780
780180
700180
F00180
FE0380
7C0300
3C0700
000600
000E00
000C00
001C00
1FFF80
3FFF00
383000
007000
007000
00E000
00E000
01E000
01C000
01C000
038000
038000
038000
078000
078000
078000
060000
ENDCHAR
STARTCHAR G
ENCODING 71
SWIDTH 612 0
DWIDTH 20 0
BBX 18 30 0 -6
BITMAP
000600
003F80
007180
01E1C0
03C1C0
0381C0
0701C0
0F01C0
0E0380
1E0F80
1C0780
3C0300
3C0000
380000
780000
780000
783FC0
70FFC0
708300
700300
F00700
F00600
700E00
700E00
701C00
701800
303800
387000
1FE000
0F8000
ENDCHAR
STARTCHAR H
ENCODING 72
SWIDTH 649 0
DWIDTH 21 0
BBX 21 29 0 -6
BITMAP
01C038
038078
038070
038070
0700F0
0700E0
0700E0
0600E0
0E01C0
0E01C0
0E01C0
0C0180
1C0380
1FFFE0
3FFFE0
79C3E0
386700
383700
383700
381E00
701E00
701E00
700E00
700C00
701C00
F01C00
E01C00
E01C00
E00000
ENDCHAR
STARTCHAR I
ENCODING 73
SWIDTH 537 0
DWIDTH 17 0
BBX 19 29 -2 -6
BITMAP
000780
001FC0
003DC0
0039C0
0071C0
007180
00F180
00E380
00E380
00E380
00E380
006700
006700
006700
002700
000E00
003FE0
07FFC0
1F8C00
7C1C00
F01C00
E01800
E03800
E03000
E07000
706000
78C000
3FC000
0F0000
ENDCHAR
STARTCHAR J
ENCODING 74
SWIDTH 500 0
DWIDTH 16 0
BBX 22 29 -3 -6
BITMAP
003FFC
003FFC
0021C0
0001C0
0001C0
000380
000380
000380
000380
000700
000700
000700
000700
000F00
030E00
0F0E00
1F0E00
1E1E00
3C1C00
381C00
701C00
603800
603800
E07000
E07000
60E000
60C000
338000
1F0000
ENDCHAR
STARTCHAR K
ENCODING 75
SWIDTH 497 0
DWIDTH 16 0
BBX 19 32 -2 -9
BITMAP
00E0E0
01C0E0
01C0E0
01C0E0
0381E0
0381C0
0383C0
070380
070700
070F00
060E00
0E1C00
0E3800
0EF000
0DC000
1FF000
1FFC00
1C1C00
181C00
381C00
381C00
381C00
383800
383800
703800
707000
707000
707000
E07000
003800
001F80
000700
ENDCHAR
STARTCHAR L
ENCODING 76
SWIDTH 492 0
DWIDTH 16 0
BBX 20 30 -3 -6
BITMAP
000040
0001F0
0003F0
000730
000E70
000E70
000E60
001CE0
001DC0
001F80
001F00
0FFE00
07F800
003800
003800
003000
007000
007000
006000
00E000
00E000
00C000
01C000
018000
3F8000
FF8000
E7C040
FDFB80
F87F80
001F00
ENDCHAR
STARTCHAR M
ENCODING 77
SWIDTH 733 0
DWIDTH 23 0
BBX 26 29 -3 -6
BITMAP
001E01C0
001E03C0
003E07C0
003E06C0
003E0FC0
007E0D80
006E1D80
006E1980
00EE3B80
00EE3380
00CC3300
01CC6300
01CC6700
01CCE700
018CC600
138DC600
338D8E00
638D8E00
638F8E00
E30F0C00
C70F0C00
C70F1C00
C70F1C00
CE0E1C00
CE001C00
CE001C00
FC001C00
7C001E80
38000F00
ENDCHAR
STARTCHAR N
ENCODING 78
SWIDTH 541 0
DWIDTH 17 0
BBX 21 30 -1 -6
BITMAP
000010
0300F8
0780F8
0781C8
078188
0F8398
0D8398
0D8330
0D8360
0D9FC0
1D8F80
198700
198600
198600
398600
398E00
318E00
318E00
718C00
71CC00
70DC00
70DC00
E0DC00
E0D800
E0D800
E0F800
E0F800
E07000
F07000
402000
ENDCHAR
STARTCHAR O
ENCODING 79
SWIDTH 567 0
DWIDTH 18 0
BBX 17 30 0 -6
BITMAP
007000
00FE00
01FE00
03C700
070700
0E0700
0E0300
1C0300
1C0300
380380
380380
380300
780300
700300
700700
700700
700700
700700
E00700
E00E00
E00E00
E00E00
E01C00
E01C00
603800
703000
707000
30E000
3FC000
0F0000
ENDCHAR
STARTCHAR P
ENCODING 80
SWIDTH 552 0
DWIDTH 18 0
BBX 20 30 -2 -6
BITMAP
000600
00FFC0
03C1E0
0FC0E0
0EC070
0CC070
09C070
018070
018070
018070
0380E0
0300E0
0301C0
0703C0
070780
070F00
063C00
0FF000
0FC000
0E0000
0E0000
1C0000
1C0000
1C0000
1C0000
380000
380000
780000
F00000
200000
ENDCHAR
STARTCHAR Q
ENCODING 81
SWIDTH 583 0
DWIDTH 19 0
BBX 17 30 1 -6
BITMAP
003000
01FC00
03CE00
070600
0E0700
1C0300
1C0300
380300
380300
700380
700300
F00300
E00700
E00700
E00700
E00700
E00E00
E00E00
E00E00
F01C00
701C00
3C3800
003800
0E7000
3FE000
71E000
E3E000
E7F800
7E1C00
3C0700
ENDCHAR
STARTCHAR R
ENCODING 82
SWIDTH 560 0
DWIDTH 18 0
BBX 19 32 -1 -8
BITMAP
000E00
01FF80
07C3C0
0FC1E0
1D80E0
1980E0
1180E0
0380E0
0300E0
0300E0
0700E0
0701C0
0603C0
060380
0E0700
1F9E00
3EFC00
1FF000
1FF000
1C3000
1C3000
1C3800
1C3800
383800
383800
383800
783800
701800
F01C00
001F80
001F00
000600
ENDCHAR
STARTCHAR S
ENCODING 83
SWIDTH 474 0
DWIDTH 15 0
BBX 18 30 -2 -6
BITMAP
001E00
00FF80
01E380
0381C0
0701C0
0701C0
0E01C0
0E0380
0E0380
0F0700
070000
078000
03C000
01E000
01F000
00F000
007800
003800
003800
001800
001800
081800
701800
701800
F03800
703000
707000
78E000
3FC000
1F0000
ENDCHAR
STARTCHAR T
ENCODING 84
SWIDTH 423 0
DWIDTH 14 0
BBX 16 29 1 -6
BITMAP
7FFF
FFFF
F9C0
81C0
0380
0380
0380
0300
0700
0700
0700
0600
0E00
0E00
0E00
0C00
1C00
1C00
1C00
1C00
1800
3800
3800
3800
3800
7800
7000
7000
6000
ENDCHAR
STARTCHAR U
ENCODING 85
SWIDTH 574 0
DWIDTH 18 0
BBX 20 29 0 -6
BITMAP
0380F0
0780E0
0701E0
0F01C0
0F01C0
0E01C0
0E03C0
1E0380
1C0380
1C0380
3C0700
380700
380700
380600
300E00
700E00
700E00
700E00
701C00
601C00
601C00
E03C00
E03C00
E07C00
E07C00
70DC00
7BDC00
7F0E00
1E0800
ENDCHAR
STARTCHAR V
ENCODING 86
SWIDTH 503 0
DWIDTH 16 0
BBX 17 29 1 -6
BITMAP
1C0300
3C0780
380700
380700
380E00
300E00
701E00
701C00
701C00
703800
603800
603800
E07000
E07000
E07000
E06000
E0E000
60E000
60C000
61C000
61C000
618000
638000
630000
730000
360000
3E0000
1C0000
1C0000
ENDCHAR
STARTCHAR W
ENCODING 87
SWIDTH 817 0
DWIDTH 26 0
BBX 25 30 1 -6
BITMAP
00000100
07000780
0E020780
0E060780
1C0E0780
1C0E0780
181E0700
381E0700
381C0700
301C0700
701C0700
701C0700
70180600
60180600
E0380E00
E0380E00
E0380C00
C0781C00
C0781C00
C0701800
C0F03800
C0F03800
C1F03000
C1B87000
C3986000
E318E000
E719C000
7E1F8000
7C0F0000
380E0000
ENDCHAR
STARTCHAR X
ENCODING 88
SWIDTH 579 0
DWIDTH 19 0
BBX 24 30 -2 -6
BITMAP
030000
07C00E
0CC01F
08E03C
18E078
1860F0
1C60E0
1EE1C0
0FF380
077380
003700
003E00
003E00
003C00
003800
003800
007800
00F800
00F800
01F800
039800
039800
071800
0F1800
0E1C00
1C1C08
3C0C18
F80E70
7007E0
000380
ENDCHAR
STARTCHAR Y
ENCODING 89
SWIDTH 532 0
DWIDTH 17 0
BBX 18 29 0 -6
BITMAP
0701C0
0F01C0
0E03C0
0E0380
1E0380
1C0380
1C0700
1C0700
380700
380700
380E00
300E00
700E00
701E00
701C00
703C00
706C00
70EC00
7FD800
3F9800
0C1800
003000
003000
007000
20E000
71E000
FFC000
7F8000
3E0000
ENDCHAR
STARTCHAR Z
ENCODING 90
SWIDTH 455 0
DWIDTH 15 0
BBX 19 29 -3 -6
BITMAP
03FFE0
03FFE0
03E0E0
0400E0
0001C0
0001C0
000380
000780
000700
000E00
001E00
003C00
003800
007000
00E000
01C000
03C000
078000
070000
0E0000
1C0000
1C0000
380000
300000
700000
6FFE00
FFFE00
7FFC00
400000
ENDCHAR
STARTCHAR bracketleft
ENCODING 91
SWIDTH 202 0
DWIDTH 6 0
BBX 11 31 -1 -4
BITMAP
00E0
03C0
03C0
0300
0700
0600
0600
0E00
0C00
0C00
0C00
1C00
1800
1800
1800
3800
3000
3000
3000
7000
6000
6000
6000
6000
E000
C000
C000
C000
E000
F000
C000
ENDCHAR
STARTCHAR backslash
ENCODING 92
SWIDTH 273 0
DWIDTH 9 0
BBX 6 25 1 -1
BITMAP
20
E0
E0
60
60
60
60
60
70
70
30
30
30
30
30
38
38
18
18
18
1C
1C
1C
0C
08
ENDCHAR
STARTCHAR bracketright
ENCODING 93
SWIDTH 216 0
DWIDTH 7 0
BBX 11 31 -3 -4
BITMAP
0040
03E0
00E0
00E0
00C0
00C0
00C0
00C0
01C0
0180
0180
0180
0180
0300
0300
0300
0300
0700
0600
0600
0600
0E00
0C00
0C00
1C00
1800
1800
3800
F800
F000
E000
ENDCHAR
STARTCHAR asciicircum
ENCODING 94
SWIDTH 287 0
DWIDTH 9 0
BBX 11 12 -1 11
BITMAP
01C0
03C0
07C0
06C0
0CC0
0CC0
18E0
38E0
30E0
70E0
E060
0040
ENDCHAR
STARTCHAR underscore
ENCODING 95
SWIDTH 439 0
DWIDTH 14 0
BBX 17 2 -4 0
BITMAP
7FFF80
FFFF80
ENDCHAR
STARTCHAR grave
ENCODING 96
SWIDTH 567 0
DWIDTH 18 0
BBX 6 4 8 18
BITMAP
60
F0
78
1C
ENDCHAR
STARTCHAR a
ENCODING 97
SWIDTH 435 0
DWIDTH 14 0
BBX 18 13 -1 0
BITMAP
03C000
07C000
0CC000
1D6000
386000
306040
70E080
70C180
60C300
61C600
F3CC00
7ED800
7CF000
ENDCHAR
STARTCHAR b
ENCODING 98
SWIDTH 415 0
DWIDTH 13 0
BBX 16 24 0 -1
BITMAP
0300
0700
0F00
0F00
0E00
1E00
1E00
1E00
3C00
3C00
3800
7880
79C1
71C7
71FC
60C0
E0C0
E1C0
C180
4380
6300
6600
7C00
1000
ENDCHAR
STARTCHAR c
ENCODING 99
SWIDTH 363 0
DWIDTH 12 0
BBX 14 14 0 -1
BITMAP
0F00
1D80
3980
7380
6300
E004
C00C
C008
C010
C020
E0C0
F180
7F00
1C00
ENDCHAR
STARTCHAR d
ENCODING 100
SWIDTH 483 0
DWIDTH 15 0
BBX 18 23 0 -1
BITMAP
000E00
000E00
001E00
001E00
001E00
001E00
003C00
003C00
003C00
073800
1F7800
39F000
30F000
60E000
E0E040
C0C0C0
C0C180
C1C100
C3C200
C78400
FDD800
78F000
004000
ENDCHAR
STARTCHAR e
ENCODING 101
SWIDTH 372 0
DWIDTH 12 0
BBX 14 14 0 -1
BITMAP
0780
1F80
3980
3180
6300
6604
EC04
F808
E018
E030
E0E0
F1C0
7F00
1C00
ENDCHAR
STARTCHAR f
ENCODING 102
SWIDTH 325 0
DWIDTH 10 0
BBX 17 37 -3 -15
BITMAP
01E000
01E000
00E000
00E000
01C000
01C000
01C000
018000
018000
038000
038000
030000
030080
077F00
07E000
0F0000
1E0000
1C0000
1C0000
1F0000
1B8000
198000
19C000
38C000
30E000
30E000
30E000
70E000
60C000
60C000
61C000
E38000
E38000
EF0000
FE0000
FC0000
700000
ENDCHAR
STARTCHAR g
ENCODING 103
SWIDTH 459 0
DWIDTH 15 0
BBX 17 29 0 -16
BITMAP
070000
1FB000
39F000
30E000
60E000
60E000
E0E180
E0E100
C0C200
C1CC00
E3D800
FFF000
7DE000
038000
078000
0F8000
1B0000
330000
630000
E70000
C70000
C60000
C60000
CE0000
CE0000
DC0000
FC0000
780000
300000
ENDCHAR
STARTCHAR h
ENCODING 104
SWIDTH 465 0
DWIDTH 15 0
BBX 17 23 0 -1
BITMAP
0E0000
0E0000
0E0000
0E0000
0E0000
1C0000
1C0000
1C0000
180000
184000
3BE000
37E000
3C6000
386000
70E000
70E080
60C100
61C300
E18600
E18C00
C1F000
C1E000
408000
ENDCHAR
STARTCHAR i
ENCODING 105
SWIDTH 274 0
DWIDTH 9 0
BBX 10 21 1 0
BITMAP
0400
1C00
1C00
1800
0000
0000
0000
0000
0000
7000
7000
7000
E000
E040
E0C0
C080
C100
C300
CE00
FC00
7000
ENDCHAR
STARTCHAR j
ENCODING 106
SWIDTH 267 0
DWIDTH 9 0
BBX 18 35 -7 -14
BITMAP
000400
000C00
001C00
000800
000000
000000
000000
000000
000000
003000
007000
007000
006000
00E040
00E0C0
00E180
00C300
01C600
01CC00
01D800
01F000
01C000
038000
078000
0F8000
1B0000
330000
770000
670000
E60000
C60000
CE0000
4C0000
7C0000
380000
ENDCHAR
STARTCHAR k
ENCODING 107
SWIDTH 440 0
DWIDTH 14 0
BBX 17 23 -1 -1
BITMAP
070000
070000
070000
070000
060000
0E0000
0E0000
0C0000
0C0000
1C6000
19F000
1BF000
1E3000
3C6000
38C000
378080
37C180
22C300
60C600
618C00
61D800
E1F000
40E000
ENDCHAR
STARTCHAR l
ENCODING 108
SWIDTH 218 0
DWIDTH 7 0
BBX 7 23 0 -1
BITMAP
0E
0E
0E
0E
0C
1C
1C
1C
18
38
38
38
30
70
70
70
60
E0
E0
E0
C0
C0
C0
ENDCHAR
STARTCHAR m
ENCODING 109
SWIDTH 717 0
DWIDTH 23 0
BBX 26 13 0 -1
BITMAP
18E1C000
3BF7E000
3F7FE000
3C78E000
3870E0C0
7870C080
70E1C100
70E1C300
60C1C600
E0C18C00
E1C1D800
E1C1F000
8000C000
ENDCHAR
STARTCHAR n
ENCODING 110
SWIDTH 461 0
DWIDTH 15 0
BBX 18 13 -1 -1
BITMAP
1DF000
1FF000
1E7000
3C7000
3C7040
387040
306080
30E180
70E300
70C600
60EC00
60F800
806000
ENDCHAR
STARTCHAR o
ENCODING 111
SWIDTH 393 0
DWIDTH 13 0
BBX 16 14 0 -1
BITMAP
0E00
1F00
3980
7183
71C6
F1DC
F9F0
DFE0
CF80
C380
C300
E700
7E00
3000
ENDCHAR
STARTCHAR p
ENCODING 112
SWIDTH 451 0
DWIDTH 14 0
BBX 20 26 -3 -14
BITMAP
073C00
077C00
078C00
070C00
0F0C10
0E0C30
0C1C60
0C1840
0E3880
1FF380
1FEF00
1FFC00
1B9000
380000
300000
300000
300000
700000
700000
600000
600000
E00000
E00000
E00000
E00000
400000
ENDCHAR
STARTCHAR q
ENCODING 113
SWIDTH 462 0
DWIDTH 15 0
BBX 16 27 0 -15
BITMAP
0FB8
19B0
30F0
70F0
6060
E0E0
E0E0
E0C1
E1C3
E1C2
E3C4
7F88
3998
01B0
03E0
03C0
0380
0300
0700
0700
0F00
0E00
0E00
0E00
0F00
0600
0200
ENDCHAR
STARTCHAR r
ENCODING 114
SWIDTH 406 0
DWIDTH 13 0
BBX 17 16 -2 -1
BITMAP
020000
070000
0F0000
0F0000
0FE000
0FE000
0C7000
187080
18E080
30C180
21C300
618600
438C00
C39800
81F000
01E000
ENDCHAR
STARTCHAR s
ENCODING 115
SWIDTH 351 0
DWIDTH 11 0
BBX 9 15 0 -1
BITMAP
0E00
1E00
1E00
1C00
1C00
3E00
6600
4700
C300
0380
2380
7380
7300
7E00
3C00
ENDCHAR
STARTCHAR t
ENCODING 116
SWIDTH 301 0
DWIDTH 10 0
BBX 15 23 -2 -1
BITMAP
01C0
01C0
03C0
0380
03FC
FFFE
3F80
0780
0700
0700
0F00
0E00
0E00
0C00
0C04
1C0C
1808
1810
1830
1860
1DC0
0F80
0600
ENDCHAR
STARTCHAR u
ENCODING 117
SWIDTH 468 0
DWIDTH 15 0
BBX 18 13 0 -1
BITMAP
386000
306000
70E000
70E000
60E040
E1E080
E1C180
E1C300
C1C600
E3CC00
FEF800
7EF000
100000
ENDCHAR
STARTCHAR v
ENCODING 118
SWIDTH 427 0
DWIDTH 14 0
BBX 17 14 0 -1
BITMAP
002000
707000
70F000
60E000
E0E180
E0C300
E0FC00
E1E000
E30000
630000
660000
7C0000
380000
300000
ENDCHAR
STARTCHAR w
ENCODING 119
SWIDTH 646 0
DWIDTH 21 0
BBX 24 14 0 -1
BITMAP
006000
38E1C0
70E1C0
70E3C0
70C383
61C386
E183F8
E183E0
E18300
E18600
E28600
66CC00
7C7800
302000
ENDCHAR
STARTCHAR x
ENCODING 120
SWIDTH 399 0
DWIDTH 13 0
BBX 16 14 -2 -1
BITMAP
1C18
1C3C
0C78
0EF0
06E0
07C0
0780
0700
0F01
1F02
398C
71F8
E1F0
4040
ENDCHAR
STARTCHAR y
ENCODING 121
SWIDTH 406 0
DWIDTH 13 0
BBX 12 25 0 -13
BITMAP
70F0
7070
7060
70E0
E0E0
E0C0
E1C0
C3C0
C380
C780
ED80
FD80
7380
0300
0300
0300
0700
0600
0600
0E00
0E00
0E00
0C00
1C00
1C00
ENDCHAR
STARTCHAR z
ENCODING 122
SWIDTH 448 0
DWIDTH 14 0
BBX 17 27 -1 -14
BITMAP
00F000
07F800
0F9800
083800
003000
007000
006000
00C080
01C180
03F300
07F600
073C00
023800
00F000
03B000
0E6000
1C6000
38E000
30C000
61C000
61C000
C38000
C38000
C70000
EE0000
FC0000
780000
ENDCHAR
STARTCHAR braceleft
ENCODING 123
SWIDTH 243 0
DWIDTH 8 0
BBX 12 31 -1 -4
BITMAP
0030
00E0
03E0
03E0
0700
0600
0600
0600
0600
0600
0600
0600
0600
0C00
3800
3000
1800
1800
1800
1800
1800
3000
3000
6000
6000
E000
E000
F800
7800
3800
1800
ENDCHAR
STARTCHAR bar
ENCODING 124
SWIDTH 253 0
DWIDTH 8 0
BBX 8 25 0 -1
BITMAP
01
07
07
06
06
0E
0C
0C
0C
1C
18
18
18
38
30
30
30
30
70
70
60
60
E0
E0
80
ENDCHAR
STARTCHAR braceright
ENCODING 125
SWIDTH 243 0
DWIDTH 8 0
BBX 11 31 -3 -4
BITMAP
0100
0180
03C0
03E0
00E0
0060
0060
00E0
00C0
0180
0180
0300
0300
0300
0300
01C0
0380
0700
0600
0C00
0C00
0C00
0C00
0C00
0C00
0C00
0C00
3C00
7800
F000
C000
ENDCHAR
STARTCHAR asciitilde
ENCODING 126
SWIDTH 329 0
DWIDTH 11 0
BBX 12 3 -1 10
BITMAP
7E10
FFF0
E3E0
ENDCHAR
STARTCHAR uni00A0
ENCODING 160
SWIDTH 280 0
DWIDTH 9 0
BBX 1 1 0 0
BITMAP
00
ENDCHAR
STARTCHAR exclamdown
ENCODING 161
SWIDTH 249 0
DWIDTH 8 0
BBX 10 25 -1 -1
BITMAP
0080
03C0
0780
0300
0000
0100
0700
0600
0600
0E00
0E00
0E00
0C00
1C00
1C00
1C00
1800
3800
3800
3800
7800
7000
7000
7000
E000
ENDCHAR
STARTCHAR cent
ENCODING 162
SWIDTH 322 0
DWIDTH 10 0
BBX 11 23 0 0
BITMAP
0180
0180
0180
07C0
0E40
1C60
38E0
31E0
71C0
61C0
E000
C000
C000
C000
C000
C000
C080
E100
7600
3C00
1000
3000
3000
ENDCHAR
STARTCHAR sterling
ENCODING 163
SWIDTH 318 0
DWIDTH 10 0
BBX 13 20 -2 2
BITMAP
0070
01F8
0318
0318
0618
0678
0670
0C00
0C00
0C00
3C80
3F80
1800
1800
1800
3000
3000
6000
FFC0
7FC0
ENDCHAR
STARTCHAR currency
ENCODING 164
SWIDTH 347 0
DWIDTH 11 0
BBX 11 11 0 6
BITMAP
2020
3260
1FC0
1980
1080
3180
3100
3B00
7F80
C1C0
80C0
ENDCHAR
STARTCHAR yen
ENCODING 165
SWIDTH 326 0
DWIDTH 10 0
BBX 13 19 0 2
BITMAP
3018
3030
3070
3060
18C0
18C0
1980
1B00
0E00
0C00
0C00
7F00
7B00
1800
FF00
1800
3000
3000
3000
ENDCHAR
STARTCHAR brokenbar
ENCODING 166
SWIDTH 253 0
DWIDTH 8 0
BBX 8 25 0 -1
BITMAP
01
07
07
06
06
0E
0E
0C
0C
1C
18
00
00
00
38
30
30
30
70
70
60
60
E0
E0
80
ENDCHAR
STARTCHAR section
ENCODING 167
SWIDTH 297 0
DWIDTH 10 0
BBX 12 25 -1 -1
BITMAP
00C0
0720
0E30
0C30
1C30
1C60
0C00
0E00
0300
0780
1D80
30C0
70C0
60C0
7180
3700
1C00
0C00
0700
3300
E300
C300
C300
6600
3800
ENDCHAR
STARTCHAR dieresis
ENCODING 168
SWIDTH 567 0
DWIDTH 18 0
BBX 8 3 7 18
BITMAP
E7
E7
84
ENDCHAR
STARTCHAR copyright
ENCODING 169
SWIDTH 456 0
DWIDTH 15 0
BBX 15 16 1 7
BITMAP
07E0
1C38
380C
31CC
6364
C6E6
CC46
CC06
C806
C84C
C84C
CF98
C618
6030
3DE0
0F80
ENDCHAR
STARTCHAR ordfeminine
ENCODING 170
SWIDTH 373 0
DWIDTH 12 0
BBX 15 16 -2 -1
BITMAP
03C0
06C0
0CE0
1860
1860
30C0
30C0
30C2
71C4
3FCC
3EF0
1060
0000
7FE0
FFE0
E000
ENDCHAR
STARTCHAR guillemotleft
ENCODING 171
SWIDTH 346 0
DWIDTH 11 0
BBX 12 12 -1 0
BITMAP
0670
0CE0
19C0
3180
7300
E600
EE00
6700
6300
3300
3180
18C0
ENDCHAR
STARTCHAR logicalnot
ENCODING 172
SWIDTH 512 0
DWIDTH 16 0
BBX 16 8 0 5
BITMAP
3FFE
FFFF
F007
0006
0006
0006
000C
000C
ENDCHAR
STARTCHAR sfthyphen
ENCODING 173
SWIDTH 353 0
DWIDTH 11 0
BBX 12 3 -1 8
BITMAP
7FF0
7FF0
8000
ENDCHAR
STARTCHAR registered
ENCODING 174
SWIDTH 456 0
DWIDTH 15 0
BBX 15 16 1 7
BITMAP
07E0
1C38
380C
37CC
6664
C266
C646
C7C6
CF06
CD8C
CC8C
DCD8
C8D8
6030
3DE0
0F80
ENDCHAR
STARTCHAR macron
ENCODING 175
SWIDTH 567 0
DWIDTH 18 0
BBX 8 2 7 19
BITMAP
7F
FF
ENDCHAR
STARTCHAR degree
ENCODING 176
SWIDTH 144 0
DWIDTH 5 0
BBX 4 3 2 18
BITMAP
F0
90
F0
ENDCHAR
STARTCHAR twosuperior
ENCODING 178
SWIDTH 268 0
DWIDTH 9 0
BBX 10 16 0 8
BITMAP
0380
0F80
18C0
19C0
39C0
0180
0380
0300
0600
0C00
1800
3000
6000
FF00
7F00
0100
ENDCHAR
STARTCHAR threesuperior
ENCODING 179
SWIDTH 262 0
DWIDTH 8 0
BBX 9 15 1 9
BITMAP
0600
3F00
3180
6180
7B00
0300
0600
1C00
3E00
0300
0300
4600
C600
EC00
F800
ENDCHAR
STARTCHAR acute
ENCODING 180
SWIDTH 567 0
DWIDTH 18 0
BBX 6 4 8 18
BITMAP
08
1C
78
F0
ENDCHAR
STARTCHAR mu
ENCODING 181
SWIDTH 453 0
DWIDTH 15 0
BBX 19 18 -4 -6
BITMAP
000400
071C00
0E1C00
0E1C00
0C3800
0C3800
1C3820
1C3040
1C30C0
1C7080
3FDB00
3F9E00
300000
300000
700000
700000
600000
E00000
ENDCHAR
STARTCHAR paragraph
ENCODING 182
SWIDTH 411 0
DWIDTH 13 0
BBX 15 25 1 -1
BITMAP
0044
00D8
0FFE
3FFC
7F98
FF90
FFB0
FF30
FF30
FF30
7F60
3E60
0E60
0660
0640
06C0
0CC0
0CC0
0CC0
0C80
1980
1980
1980
3B00
2000
ENDCHAR
STARTCHAR periodcentered
ENCODING 183
SWIDTH 168 0
DWIDTH 5 0
BBX 5 3 0 9
BITMAP
78
F0
60
ENDCHAR
STARTCHAR cedilla
ENCODING 184
SWIDTH 567 0
DWIDTH 18 0
BBX 6 7 8 -4
BITMAP
30
60
70
7C
0C
18
F0
ENDCHAR
STARTCHAR onesuperior
ENCODING 185
SWIDTH 150 0
DWIDTH 5 0
BBX 5 15 1 9
BITMAP
08
38
38
38
30
30
30
30
60
60
60
60
C0
C0
E0
ENDCHAR
STARTCHAR ordmasculine
ENCODING 186
SWIDTH 319 0
DWIDTH 10 0
BBX 14 16 -2 -1
BITMAP
0700
0FC0
1CC4
18C4
38D8
3CF0
37C0
31C0
3180
3180
3F00
0C00
0000
7F80
FF80
E000
ENDCHAR
STARTCHAR guillemotright
ENCODING 187
SWIDTH 346 0
DWIDTH 11 0
BBX 12 13 -2 -1
BITMAP
3300
1980
18C0
1CC0
0CE0
0E70
0E60
1CE0
19C0
3380
6300
C600
0800
ENDCHAR
STARTCHAR onequarter
ENCODING 188
SWIDTH 579 0
DWIDTH 19 0
BBX 19 25 -1 -1
BITMAP
020020
0E00C0
0E0180
060380
0C0700
0C0600
0C0C00
0C1C00
081800
183000
1871C0
1863C0
38C3C0
31C680
398D80
031980
073180
063FC0
0C3FC0
1C0340
380300
300300
700700
E00700
800200
ENDCHAR
STARTCHAR onehalf
ENCODING 189
SWIDTH 603 0
DWIDTH 19 0
BBX 20 25 -1 -1
BITMAP
020020
0600C0
0E01C0
060380
060300
0C0600
0C0E00
0C0C00
0C1800
183000
1833E0
186660
18CE70
39CE60
398460
0300E0
0700C0
060180
0C0300
1C0600
180C00
381800
703FC0
603FC0
801040
ENDCHAR
STARTCHAR threequarters
ENCODING 190
SWIDTH 669 0
DWIDTH 21 0
BBX 20 25 1 -1
BITMAP
060010
3F0060
3180C0
6181C0
7B0380
030300
060600
1C0E00
3E0C00
031800
0338E0
4631E0
C661E0
ECC340
F8C6C0
018CC0
0318C0
073FE0
061FC0
0E01C0
1C0180
180180
380380
700380
400100
ENDCHAR
STARTCHAR questiondown
ENCODING 191
SWIDTH 413 0
DWIDTH 13 0
BBX 16 25 -2 -1
BITMAP
0006
001F
001E
000C
0000
000C
001C
0018
0038
0038
0038
00F0
03E0
0F00
1C00
3800
3000
7000
7038
E038
E038
E038
7070
3FE0
1F80
ENDCHAR
STARTCHAR Agrave
ENCODING 192
SWIDTH 552 0
DWIDTH 18 0
BBX 20 38 -4 -8
BITMAP
000180
0001C0
0000F0
000030
000000
000000
000040
0003F0
0007F0
000E30
001C30
001870
003870
003060
007060
006060
00E0E0
00E0E0
00C0E0
01C0C0
01C0C0
0381C0
0381C0
03FFF0
1FFFE0
7F01C0
070380
0F0380
0E0380
0E0380
1E0380
1E0380
3C0380
3C0380
780380
E003C0
0003C0
000200
ENDCHAR
STARTCHAR Aacute
ENCODING 193
SWIDTH 552 0
DWIDTH 18 0
BBX 20 38 -4 -8
BITMAP
000010
000070
0000F0
0001C0
000000
000000
000040
0003F0
0007F0
000E30
001C30
001870
003870
003060
007060
006060
00E0E0
00E0E0
00C0E0
01C0C0
01C0C0
0381C0
0381C0
03FFF0
1FFFE0
7F01C0
070380
0F0380
0E0380
0E0380
1E0380
1E0380
3C0380
3C0380
780380
E003C0
0003C0
000200
ENDCHAR
STARTCHAR Acircumflex
ENCODING 194
SWIDTH 552 0
DWIDTH 18 0
BBX 22 37 -4 -8
BITMAP
000070
0000F0
000198
00071C
000000
000040
0003F0
0007F0
000E30
001C30
001870
003870
003060
007060
006060
00E0E0
00E0E0
00C0E0
01C0C0
01C0C0
0381C0
0381C0
03FFF0
1FFFE0
7F01C0
070380
0F0380
0E0380
0E0380
1E0380
1E0380
3C0380
3C0380
780380
E003C0
0003C0
000200
ENDCHAR
STARTCHAR Atilde
ENCODING 195
SWIDTH 552 0
DWIDTH 18 0
BBX 23 36 -4 -8
BITMAP
0003E6
0007FE
000208
000000
000040
0003F0
0007F0
000E30
001C30
001870
003870
003060
007060
006060
00E0E0
00E0E0
00C0E0
01C0C0
01C0C0
0381C0
0381C0
03FFF0
1FFFE0
7F01C0
070380
0F0380
0E0380
0E0380
1E0380
1E0380
3C0380
3C0380
780380
E003C0
0003C0
000200
ENDCHAR
STARTCHAR Adieresis
ENCODING 196
SWIDTH 552 0
DWIDTH 18 0
BBX 23 36 -4 -8
BITMAP
0001CE
0003DE
000108
000000
000040
0003F0
0007F0
000E30
001C30
001870
003870
003060
007060
006060
00E0E0
00E0E0
00C0E0
01C0C0
01C0C0
0381C0
0381C0
03FFF0
1FFFE0
7F01C0
070380
0F0380
0E0380
0E0380
1E0380
1E0380
3C0380
3C0380
780380
E003C0
0003C0
000200
ENDCHAR
STARTCHAR Aring
ENCODING 197
SWIDTH 552 0
DWIDTH 18 0
BBX 20 35 -4 -8
BITMAP
0000E0
0000B0
0000B0
0000E0
0003F0
0007F0
000E30
001C30
001870
003870
003060
007060
006060
00E0E0
00E0E0
00C0E0
01C0C0
01C0C0
0381C0
0381C0
03FFF0
1FFFE0
7F01C0
070380
0F0380
0E0380
0E0380
1E0380
1E0380
3C0380
3C0380
780380
E003C0
0003C0
000200
ENDCHAR
STARTCHAR AE
ENCODING 198
SWIDTH 869 0
DWIDTH 28 0
BBX 32 32 -4 -8
BITMAP
00004010
0003F1FE
0007B387
000E3F03
001C3E03
00187C03
00387C07
00307807
0070780E
0060783C
00E0F800
00E0F800
00C0FC00
01C0DC00
01C0CFE0
0381CFC0
0381F9C0
03FFF000
1FFFE000
7F01C000
0703C000
0F03C004
0E038008
0E03C008
1E03C018
1E03C030
3C03E060
3C03FFC0
7803FF80
E003DE00
0003C000
00020000
ENDCHAR
STARTCHAR Ccedilla
ENCODING 199
SWIDTH 548 0
DWIDTH 18 0
BBX 18 37 0 -13
BITMAP
000C00
007F00
00E380
03C180
0381C0
0701C0
0E03C0
0E03C0
1C0380
1C0F80
3C0700
380200
780000
780000
700000
700000
F00000
F00000
F00000
E00000
E00000
E00000
E00000
E00400
700C00
701800
783800
3FF000
1FC000
070000
060000
0E0000
0F8000
018000
018000
0F0000
080000
ENDCHAR
STARTCHAR Egrave
ENCODING 200
SWIDTH 523 0
DWIDTH 17 0
BBX 18 36 -1 -6
BITMAP
001800
001E00
000F00
000300
000000
000000
000600
007F80
01E1C0
03C0C0
0780C0
0701C0
0F01C0
0E03C0
1E0380
1E0F00
1E0000
0E0000
0E0000
070000
03F000
03F000
0E6000
1C0000
380000
700000
700000
E00100
E00200
E00600
F00600
F00C00
781800
3FF000
1FE000
078000
ENDCHAR
STARTCHAR Eacute
ENCODING 201
SWIDTH 523 0
DWIDTH 17 0
BBX 18 36 -1 -6
BITMAP
000180
000380
000700
001E00
000000
000000
000600
007F80
01E1C0
03C0C0
0780C0
0701C0
0F01C0
0E03C0
1E0380
1E0F00
1E0000
0E0000
0E0000
070000
03F000
03F000
0E6000
1C0000
380000
700000
700000
E00100
E00200
E00600
F00600
F00C00
781800
3FF000
1FE000
078000
ENDCHAR
STARTCHAR Ecircumflex
ENCODING 202
SWIDTH 523 0
DWIDTH 17 0
BBX 19 35 -1 -6
BITMAP
000380
000F80
001DC0
0030E0
000000
000600
007F80
01E1C0
03C0C0
0780C0
0701C0
0F01C0
0E03C0
1E0380
1E0F00
1E0000
0E0000
0E0000
070000
03F000
03F000
0E6000
1C0000
380000
700000
700000
E00100
E00200
E00600
F00600
F00C00
781800
3FF000
1FE000
078000
ENDCHAR
STARTCHAR Edieresis
ENCODING 203
SWIDTH 523 0
DWIDTH 17 0
BBX 19 34 -1 -6
BITMAP
001CE0
003DE0
001080
000000
000600
007F80
01E1C0
03C0C0
0780C0
0701C0
0F01C0
0E03C0
1E0380
1E0F00
1E0000
0E0000
0E0000
070000
03F000
03F000
0E6000
1C0000
380000
700000
700000
E00100
E00200
E00600
F00600
F00C00
781800
3FF000
1FE000
078000
ENDCHAR
STARTCHAR Igrave
ENCODING 204
SWIDTH 537 0
DWIDTH 17 0
BBX 19 36 -2 -6
BITMAP
000600
000F00
000380
0000C0
000000
000000
000000
000780
001FC0
003DC0
0039C0
0071C0
007180
00F180
00E380
00E380
00E380
00E380
006700
006700
006700
002700
000E00
003FE0
07FFC0
1F8C00
7C1C00
F01C00
E01800
E03800
E03000
E07000
706000
78C000
3FC000
0F0000
ENDCHAR
STARTCHAR Iacute
ENCODING 205
SWIDTH 537 0
DWIDTH 17 0
BBX 19 36 -2 -6
BITMAP
000060
0000E0
0001C0
000780
000000
000000
000000
000780
001FC0
003DC0
0039C0
0071C0
007180
00F180
00E380
00E380
00E380
00E380
006700
006700
006700
002700
000E00
003FE0
07FFC0
1F8C00
7C1C00
F01C00
E01800
E03800
E03000
E07000
706000
78C000
3FC000
0F0000
ENDCHAR
STARTCHAR Icircumflex
ENCODING 206
SWIDTH 537 0
DWIDTH 17 0
BBX 21 35 -2 -6
BITMAP
0000E0
0001E0
000730
000E38
000000
000000
000780
001FC0
003DC0
0039C0
0071C0
007180
00F180
00E380
00E380
00E380
00E380
006700
006700
006700
002700
000E00
003FE0
07FFC0
1F8C00
7C1C00
F01C00
E01800
E03800
E03000
E07000
706000
78C000
3FC000
0F0000
ENDCHAR
STARTCHAR Idieresis
ENCODING 207
SWIDTH 537 0
DWIDTH 17 0
BBX 21 34 -2 -6
BITMAP
000738
000F78
000420
000000
000000
000780
001FC0
003DC0
0039C0
0071C0
007180
00F180
00E380
00E380
00E380
00E380
006700
006700
006700
002700
000E00
003FE0
07FFC0
1F8C00
7C1C00
F01C00
E01800
E03800
E03000
E07000
706000
78C000
3FC000
0F0000
ENDCHAR
STARTCHAR Eth
ENCODING 208
SWIDTH 632 0
DWIDTH 20 0
BBX 20 30 -1 -6
BITMAP
002000
03FE00
07FF00
0F0380
0401C0
0880E0
03C0E0
0380F0
038070
038070
038070
070070
070070
070070
7FF0F0
FFE0F0
8E00E0
0E00E0
0E01E0
0E01C0
1C03C0
1C0380
1C0780
180700
380E00
381C00
783800
78F000
3FC000
0F0000
ENDCHAR
STARTCHAR Ntilde
ENCODING 209
SWIDTH 541 0
DWIDTH 17 0
BBX 21 33 -1 -6
BITMAP
007CC0
00FFC0
004100
000010
0300F8
0780F8
0781C8
078188
0F8398
0D8398
0D8330
0D8360
0D9FC0
1D8F80
198700
198600
198600
398600
398E00
318E00
318E00
718C00
71CC00
70DC00
70DC00
E0DC00
E0D800
E0D800
E0F800
E0F800
E07000
F07000
402000
ENDCHAR
STARTCHAR Ograve
ENCODING 210
SWIDTH 567 0
DWIDTH 18 0
BBX 17 36 0 -6
BITMAP
003000
003C00
001E00
000600
000000
000000
007000
00FE00
01FE00
03C700
070700
0E0700
0E0300
1C0300
1C0300
380380
380380
380300
780300
700300
700700
700700
700700
700700
E00700
E00E00
E00E00
E00E00
E01C00
E01C00
603800
703000
707000
30E000
3FC000
0F0000
ENDCHAR
STARTCHAR Oacute
ENCODING 211
SWIDTH 567 0
DWIDTH 18 0
BBX 17 36 0 -6
BITMAP
000200
000E00
001E00
003800
000000
000000
007000
00FE00
01FE00
03C700
070700
0E0700
0E0300
1C0300
1C0300
380380
380380
380300
780300
700300
700700
700700
700700
700700
E00700
E00E00
E00E00
E00E00
E01C00
E01C00
603800
703000
707000
30E000
3FC000
0F0000
ENDCHAR
STARTCHAR Ocircumflex
ENCODING 212
SWIDTH 567 0
DWIDTH 18 0
BBX 17 35 0 -6
BITMAP
000E00
001E00
007700
00C380
000000
007000
00FE00
01FE00
03C700
070700
0E0700
0E0300
1C0300
1C0300
380380
380380
380300
780300
700300
700700
700700
700700
700700
E00700
E00E00
E00E00
E00E00
E01C00
E01C00
603800
703000
707000
30E000
3FC000
0F0000
ENDCHAR
STARTCHAR Otilde
ENCODING 213
SWIDTH 567 0
DWIDTH 18 0
BBX 17 34 0 -6
BITMAP
00F980
01FF80
008200
000000
007000
00FE00
01FE00
03C700
070700
0E0700
0E0300
1C0300
1C0300
380380
380380
380300
780300
700300
700700
700700
700700
700700
E00700
E00E00
E00E00
E00E00
E01C00
E01C00
603800
703000
707000
30E000
3FC000
0F0000
ENDCHAR
STARTCHAR Odieresis
ENCODING 214
SWIDTH 567 0
DWIDTH 18 0
BBX 17 34 0 -6
BITMAP
007380
00F780
004200
000000
007000
00FE00
01FE00
03C700
070700
0E0700
0E0300
1C0300
1C0300
380380
380380
380300
780300
700300
700700
700700
700700
700700
E00700
E00E00
E00E00
E00E00
E01C00
E01C00
603800
703000
707000
30E000
3FC000
0F0000
ENDCHAR
STARTCHAR multiply
ENCODING 215
SWIDTH 281 0
DWIDTH 9 0
BBX 11 12 -1 5
BITMAP
1000
38E0
18C0
1D80
0F00
0E00
0E00
1E00
3E00
7600
6300
C300
ENDCHAR
STARTCHAR Oslash
ENCODING 216
SWIDTH 597 0
DWIDTH 19 0
BBX 20 31 -1 -7
BITMAP
001870
007FE0
00FBE0
01D3C0
03C380
0383C0
0707C0
0707C0
0E0FC0
0E0DC0
0E1DC0
1C19C0
1C39C0
1C71C0
3871C0
38E1C0
38C380
39C380
398380
3B8380
3B0700
3F0700
3E0700
3E0E00
3C0C00
3C1C00
383800
3C7000
7FE000
77C000
C00000
ENDCHAR
STARTCHAR Ugrave
ENCODING 217
SWIDTH 574 0
DWIDTH 18 0
BBX 20 35 0 -6
BITMAP
003000
003C00
001E00
000600
000000
000000
0380F0
0780E0
0701E0
0F01C0
0F01C0
0E01C0
0E03C0
1E0380
1C0380
1C0380
3C0700
380700
380700
380600
300E00
700E00
700E00
700E00
701C00
601C00
601C00
E03C00
E03C00
E07C00
E07C00
70DC00
7BDC00
7F0E00
1E0800
ENDCHAR
STARTCHAR Uacute
ENCODING 218
SWIDTH 574 0
DWIDTH 18 0
BBX 20 35 0 -6
BITMAP
000180
000380
000700
001E00
000000
000000
0380F0
0780E0
0701E0
0F01C0
0F01C0
0E01C0
0E03C0
1E0380
1C0380
1C0380
3C0700
380700
380700
380600
300E00
700E00
700E00
700E00
701C00
601C00
601C00
E03C00
E03C00
E07C00
E07C00
70DC00
7BDC00
7F0E00
1E0800
ENDCHAR
STARTCHAR Ucircumflex
ENCODING 219
SWIDTH 574 0
DWIDTH 18 0
BBX 20 35 0 -6
BITMAP
000700
001F00
003B80
0061C0
000000
000000
0380F0
0780E0
0701E0
0F01C0
0F01C0
0E01C0
0E03C0
1E0380
1C0380
1C0380
3C0700
380700
380700
380600
300E00
700E00
700E00
700E00
701C00
601C00
601C00
E03C00
E03C00
E07C00
E07C00
70DC00
7BDC00
7F0E00
1E0800
ENDCHAR
STARTCHAR Udieresis
ENCODING 220
SWIDTH 574 0
DWIDTH 18 0
BBX 20 34 0 -6
BITMAP
003980
007380
002100
000000
000000
0380F0
0780E0
0701E0
0F01C0
0F01C0
0E01C0
0E03C0
1E0380
1C0380
1C0380
3C0700
380700
380700
380600
300E00
700E00
700E00
700E00
701C00
601C00
601C00
E03C00
E03C00
E07C00
E07C00
70DC00
7BDC00
7F0E00
1E0800
ENDCHAR
STARTCHAR Yacute
ENCODING 221
SWIDTH 532 0
DWIDTH 17 0
BBX 18 35 0 -6
BITMAP
000200
000700
001E00
003800
000000
000000
0701C0
0F01C0
0E03C0
0E0380
1E0380
1C0380
1C0700
1C0700
380700
380700
380E00
300E00
700E00
701E00
701C00
703C00
706C00
70EC00
7FD800
3F9800
0C1800
003000
003000
007000
20E000
71E000
FFC000
7F8000
3E0000
ENDCHAR
STARTCHAR Thorn
ENCODING 222
SWIDTH 569 0
DWIDTH 18 0
BBX 18 29 -1 -6
BITMAP
01C000
038000
038000
038000
070000
07FE00
07FF00
0F0380
3E01C0
3E01C0
3E01C0
0C01C0
1C01C0
1C01C0
1C01C0
180380
380380
380700
380E00
381C00
307800
71F000
7FC000
700000
700000
F00000
E00000
E00000
C00000
ENDCHAR
STARTCHAR germandbls
ENCODING 223
SWIDTH 495 0
DWIDTH 16 0
BBX 18 36 -4 -15
BITMAP
001F00
003F00
007180
00E380
00C380
01C300
01C700
018600
038E00
038C00
030C00
030E00
070600
060700
060380
6E0380
3C01C0
0E18C0
0F38C0
1FBC80
199F00
18CE00
18C000
386000
306000
306000
306000
70E000
60C000
61C000
618000
E38000
E70000
FE0000
FC0000
780000
ENDCHAR
STARTCHAR agrave
ENCODING 224
SWIDTH 435 0
DWIDTH 14 0
BBX 18 19 -1 0
BITMAP
020000
078000
03C000
00E000
000000
000000
03C000
07C000
0CC000
1D6000
386000
306040
70E080
70C180
60C300
61C600
F3CC00
7ED800
7CF000
ENDCHAR
STARTCHAR aacute
ENCODING 225
SWIDTH 435 0
DWIDTH 14 0
BBX 18 19 -1 0
BITMAP
002000
00E000
01E000
038000
000000
000000
03C000
07C000
0CC000
1D6000
386000
306040
70E080
70C180
60C300
61C600
F3CC00
7ED800
7CF000
ENDCHAR
STARTCHAR acircumflex
ENCODING 226
SWIDTH 435 0
DWIDTH 14 0
BBX 18 19 -1 0
BITMAP
00E000
03E000
077000
0C3800
000000
000000
03C000
07C000
0CC000
1D6000
386000
306040
70E080
70C180
60C300
61C600
F3CC00
7ED800
7CF000
ENDCHAR
STARTCHAR atilde
ENCODING 227
SWIDTH 435 0
DWIDTH 14 0
BBX 18 18 -1 0
BITMAP
0F8800
1FF800
082000
000000
000000
03C000
07C000
0CC000
1D6000
386000
306040
70E080
70C180
60C300
61C600
F3CC00
7ED800
7CF000
ENDCHAR
STARTCHAR adieresis
ENCODING 228
SWIDTH 435 0
DWIDTH 14 0
BBX 18 18 -1 0
BITMAP
031800
073800
041000
000000
000000
03C000
07C000
0CC000
1D6000
386000
306040
70E080
70C180
60C300
61C600
F3CC00
7ED800
7CF000
ENDCHAR
STARTCHAR aring
ENCODING 229
SWIDTH 435 0
DWIDTH 14 0
BBX 18 18 -1 0
BITMAP
03C000
024000
03C000
000000
000000
03C000
07C000
0CC000
1D6000
386000
306040
70E080
70C180
60C300
61C600
F3CC00
7ED800
7CF000
ENDCHAR
STARTCHAR ae
ENCODING 230
SWIDTH 594 0
DWIDTH 19 0
BBX 23 14 -1 -1
BITMAP
03C780
07CF80
0CD980
1D7180
38F300
30E602
70EC04
70F80C
60E018
61E030
F3E060
7E71C0
7C7F00
001C00
ENDCHAR
STARTCHAR ccedilla
ENCODING 231
SWIDTH 363 0
DWIDTH 12 0
BBX 14 20 0 -7
BITMAP
0F00
1D80
3980
7380
6300
E004
C00C
C008
C010
C020
E0C0
F180
7F00
1C00
3000
3C00
3E00
0600
0E00
7800
ENDCHAR
STARTCHAR egrave
ENCODING 232
SWIDTH 372 0
DWIDTH 12 0
BBX 14 20 0 -1
BITMAP
0C00
0E00
0780
0180
0000
0000
0780
1F80
3980
3180
6300
6604
EC04
F808
E018
E030
E0E0
F1C0
7F00
1C00
ENDCHAR
STARTCHAR eacute
ENCODING 233
SWIDTH 372 0
DWIDTH 12 0
BBX 14 20 0 -1
BITMAP
00C0
01C0
0380
0F00
0000
0000
0780
1F80
3980
3180
6300
6604
EC04
F808
E018
E030
E0E0
F1C0
7F00
1C00
ENDCHAR
STARTCHAR ecircumflex
ENCODING 234
SWIDTH 372 0
DWIDTH 12 0
BBX 14 20 0 -1
BITMAP
0380
07C0
0CC0
3860
0000
0000
0780
1F80
3980
3180
6300
6604
EC04
F808
E018
E030
E0E0
F1C0
7F00
1C00
ENDCHAR
STARTCHAR edieresis
ENCODING 235
SWIDTH 372 0
DWIDTH 12 0
BBX 14 19 0 -1
BITMAP
0C60
1CE0
0840
0000
0000
0780
1F80
3980
3180
6300
6604
EC04
F808
E018
E030
E0E0
F1C0
7F00
1C00
ENDCHAR
STARTCHAR igrave
ENCODING 236
SWIDTH 274 0
DWIDTH 9 0
BBX 10 19 1 0
BITMAP
C000
E000
7000
1800
0000
0000
0000
7000
7000
7000
E000
E040
E0C0
C080
C100
C300
CE00
FC00
7000
ENDCHAR
STARTCHAR iacute
ENCODING 237
SWIDTH 274 0
DWIDTH 9 0
BBX 10 19 1 0
BITMAP
0100
0700
0F00
1C00
0000
0000
0000
7000
7000
7000
E000
E040
E0C0
C080
C100
C300
CE00
FC00
7000
ENDCHAR
STARTCHAR icircumflex
ENCODING 238
SWIDTH 274 0
DWIDTH 9 0
BBX 11 19 0 0
BITMAP
0E00
1F00
3300
E180
0000
0000
0000
3800
3800
3800
7000
7020
7060
6040
6080
6180
6700
7E00
3800
ENDCHAR
STARTCHAR idieresis
ENCODING 239
SWIDTH 274 0
DWIDTH 9 0
BBX 10 18 1 0
BITMAP
E700
E700
8400
0000
0000
0000
7000
7000
7000
E000
E040
E0C0
C080
C100
C300
CE00
FC00
7000
ENDCHAR
STARTCHAR eth
ENCODING 240
SWIDTH 393 0
DWIDTH 13 0
BBX 16 22 0 -1
BITMAP
0100
0180
0180
00F8
07F8
0FC0
08C0
00C0
0EC0
1FC0
39C0
71C3
71C6
F1DC
F9F0
DFE0
CF80
C380
C300
E700
7E00
3000
ENDCHAR
STARTCHAR ntilde
ENCODING 241
SWIDTH 461 0
DWIDTH 15 0
BBX 18 18 -1 -1
BITMAP
0FCC00
0FF800
083000
000000
000000
1DF000
1FF000
1E7000
3C7000
3C7040
387040
306080
30E180
70E300
70C600
60EC00
60F800
806000
ENDCHAR
STARTCHAR ograve
ENCODING 242
SWIDTH 393 0
DWIDTH 13 0
BBX 16 20 0 -1
BITMAP
0C00
0E00
0780
0180
0000
0000
0E00
1F00
3980
7183
71C6
F1DC
F9F0
DFE0
CF80
C380
C300
E700
7E00
3000
ENDCHAR
STARTCHAR oacute
ENCODING 243
SWIDTH 393 0
DWIDTH 13 0
BBX 16 20 0 -1
BITMAP
00C0
01C0
0380
0F00
0000
0000
0E00
1F00
3980
7183
71C6
F1DC
F9F0
DFE0
CF80
C380
C300
E700
7E00
3000
ENDCHAR
STARTCHAR ocircumflex
ENCODING 244
SWIDTH 393 0
DWIDTH 13 0
BBX 16 20 0 -1
BITMAP
0700
0F80
1980
70C0
0000
0000
0E00
1F00
3980
7183
71C6
F1DC
F9F0
DFE0
CF80
C380
C300
E700
7E00
3000
ENDCHAR
STARTCHAR otilde
ENCODING 245
SWIDTH 393 0
DWIDTH 13 0
BBX 16 18 0 -1
BITMAP
3E20
7FE0
2080
0000
0E00
1F00
3980
7183
71C6
F1DC
F9F0
DFE0
CF80
C380
C300
E700
7E00
3000
ENDCHAR
STARTCHAR odieresis
ENCODING 246
SWIDTH 393 0
DWIDTH 13 0
BBX 16 18 0 -1
BITMAP
1CE0
1DE0
1080
0000
0E00
1F00
3980
7183
71C6
F1DC
F9F0
DFE0
CF80
C380
C300
E700
7E00
3000
ENDCHAR
STARTCHAR divide
ENCODING 247
SWIDTH 350 0
DWIDTH 11 0
BBX 11 10 0 6
BITMAP
0700
0700
0000
3FE0
FFE0
F800
0000
0C00
1C00
1800
ENDCHAR
STARTCHAR oslash
ENCODING 248
SWIDTH 406 0
DWIDTH 13 0
BBX 18 16 -2 -2
BITMAP
000C00
01B800
07F000
0E6000
0C3040
1C3180
1C3300
3E3E00
3BF800
31F000
306000
38E000
19C000
3F8000
740000
F00000
ENDCHAR
STARTCHAR ugrave
ENCODING 249
SWIDTH 468 0
DWIDTH 15 0
BBX 18 20 0 -1
BITMAP
040000
0F0000
078000
01C000
000000
000000
000000
386000
306000
70E000
70E000
60E040
E1E080
E1C180
E1C300
C1C600
E3CC00
FEF800
7EF000
100000
ENDCHAR
STARTCHAR uacute
ENCODING 250
SWIDTH 468 0
DWIDTH 15 0
BBX 18 20 0 -1
BITMAP
004000
00E000
03C000
070000
000000
000000
000000
386000
306000
70E000
70E000
60E040
E1E080
E1C180
E1C300
C1C600
E3CC00
FEF800
7EF000
100000
ENDCHAR
STARTCHAR ucircumflex
ENCODING 251
SWIDTH 468 0
DWIDTH 15 0
BBX 18 19 0 -1
BITMAP
01C000
03C000
0E6000
1C7000
000000
000000
386000
306000
70E000
70E000
60E040
E1E080
E1C180
E1C300
C1C600
E3CC00
FEF800
7EF000
100000
ENDCHAR
STARTCHAR udieresis
ENCODING 252
SWIDTH 468 0
DWIDTH 15 0
BBX 18 18 0 -1
BITMAP
0E7000
0E7000
084000
000000
000000
386000
306000
70E000
70E000
60E040
E1E080
E1C180
E1C300
C1C600
E3CC00
FEF800
7EF000
100000
ENDCHAR
STARTCHAR yacute
ENCODING 253
SWIDTH 406 0
DWIDTH 13 0
BBX 12 32 0 -13
BITMAP
0020
00E0
01E0
0380
0000
0000
0000
70F0
7070
7060
70E0
E0E0
E0C0
E1C0
C3C0
C380
C780
ED80
FD80
7380
0300
0300
0300
0700
0600
0600
0E00
0E00
0E00
0C00
1C00
1C00
ENDCHAR
STARTCHAR thorn
ENCODING 254
SWIDTH 451 0
DWIDTH 14 0
BBX 20 36 -3 -14
BITMAP
00C000
01C000
01C000
01C000
01C000
018000
038000
038000
038000
030000
073C00
07FC00
078C00
070C00
070C10
0E0C30
0C1C60
0C1840
0E3880
1FF380
1FEF00
1FFC00
1B9000
380000
300000
300000
300000
700000
700000
600000
600000
E00000
E00000
E00000
E00000
400000
ENDCHAR
STARTCHAR ydieresis
ENCODING 255
SWIDTH 406 0
DWIDTH 13 0
BBX 12 31 0 -13
BITMAP
0C60
1CE0
0840
0000
0000
0000
70F0
7070
7060
70E0
E0E0
E0C0
E1C0
C3C0
C380
C780
ED80
FD80
7380
0300
0300
0300
0700
0600
0600
0E00
0E00
0E00
0C00
1C00
1C00
ENDCHAR
STARTCHAR dotlessi
ENCODING 305
SWIDTH 274 0
DWIDTH 9 0
BBX 10 12 1 0
BITMAP
7000
7000
7000
E000
E040
E0C0
C080
C100
C300
CE00
FC00
7000
ENDCHAR
STARTCHAR Lslash
ENCODING 321
SWIDTH 492 0
DWIDTH 16 0
BBX 20 30 -3 -6
BITMAP
000040
0001F0
0003F0
000730
000E70
000E70
000E60
001CE0
001DC0
001F80
001F00
0FFE00
07F800
003800
003800
003000
007F00
03FE00
07E000
06E000
00E000
00C000
01C000
018000
3F8000
FF8000
E7C040
FDFB80
F87F80
001F00
ENDCHAR
STARTCHAR lslash
ENCODING 322
SWIDTH 218 0
DWIDTH 7 0
BBX 11 23 -2 -1
BITMAP
0380
0380
0380
0380
0300
0700
0700
0700
0600
0FE0
7FC0
FE00
CC00
1C00
1C00
1C00
1800
3800
3800
3800
3000
3000
3000
ENDCHAR
STARTCHAR OE
ENCODING 338
SWIDTH 918 0
DWIDTH 29 0
BBX 30 30 0 -6
BITMAP
007000C0
00FE07F0
01FE1E18
03C7381C
0707701C
0E07F01C
0E03E01C
1C03E038
1C03E078
3803E070
3803E000
3803E000
7803E000
70037000
70073F00
70077F00
7007E600
70078000
E0070000
E00F0000
E00E0000
E00E0020
E01E0020
E01E0060
603E00C0
703F00C0
70778380
30E7FF00
3FC3FE00
0F00F800
ENDCHAR
STARTCHAR oe
ENCODING 339
SWIDTH 583 0
DWIDTH 19 0
BBX 22 14 0 -1
BITMAP
0C0F00
1F1F00
39B300
71E300
71E600
F9CE04
DDDC08
DFF018
C7C030
C3C060
C3C0C0
E7E380
7EFE00
303800
ENDCHAR
STARTCHAR Scaron
ENCODING 352
SWIDTH 474 0
DWIDTH 15 0
BBX 20 35 -2 -6
BITMAP
001C30
000EE0
0007C0
000300
000000
001E00
00FF80
01E380
0381C0
0701C0
0701C0
0E01C0
0E0380
0E0380
0F0700
070000
078000
03C000
01E000
01F000
00F000
007800
003800
003800
001800
001800
081800
701800
701800
F03800
703000
707000
78E000
3FC000
1F0000
ENDCHAR
STARTCHAR scaron
ENCODING 353
SWIDTH 351 0
DWIDTH 11 0
BBX 12 21 0 -1
BITMAP
1870
0CC0
0F80
0700
0000
0000
0E00
1E00
1E00
1C00
1C00
3E00
6600
4700
C300
0380
2380
7380
7300
7E00
3C00
ENDCHAR
STARTCHAR Ydieresis
ENCODING 376
SWIDTH 532 0
DWIDTH 17 0
BBX 18 34 0 -6
BITMAP
007380
00F780
004200
000000
000000
0701C0
0F01C0
0E03C0
0E0380
1E0380
1C0380
1C0700
1C0700
380700
380700
380E00
300E00
700E00
701E00
701C00
703C00
706C00
70EC00
7FD800
3F9800
0C1800
003000
003000
007000
20E000
71E000
FFC000
7F8000
3E0000
ENDCHAR
STARTCHAR Zcaron
ENCODING 381
SWIDTH 455 0
DWIDTH 15 0
BBX 20 35 -3 -6
BITMAP
001C70
000EE0
000780
000700
000000
000000
03FFE0
03FFE0
03E0E0
0400E0
0001C0
0001C0
000380
000780
000700
000E00
001E00
003C00
003800
007000
00E000
01C000
03C000
078000
070000
0E0000
1C0000
1C0000
380000
300000
700000
6FFE00
FFFE00
7FFC00
400000
ENDCHAR
STARTCHAR zcaron
ENCODING 382
SWIDTH 349 0
DWIDTH 11 0
BBX 17 33 -4 -14
BITMAP
01C700
00CC00
007800
007000
000000
000000
00F000
0FF800
0F9800
083000
003000
006000
00E000
00C080
018180
03F300
07F600
073C00
023800
01F000
03F000
0E6000
1C6000
38E000
70C000
61C000
E18000
C38000
C30000
C70000
EE0000
FC0000
780000
ENDCHAR
STARTCHAR circumflex
ENCODING 710
SWIDTH 567 0
DWIDTH 18 0
BBX 10 4 6 18
BITMAP
0E00
1F00
3300
E1C0
ENDCHAR
STARTCHAR caron
ENCODING 711
SWIDTH 567 0
DWIDTH 18 0
BBX 10 4 6 18
BITMAP
E1C0
3700
3E00
1800
ENDCHAR
STARTCHAR breve
ENCODING 728
SWIDTH 567 0
DWIDTH 18 0
BBX 8 4 7 17
BITMAP
C3
C7
FE
38
ENDCHAR
STARTCHAR dotaccent
ENCODING 729
SWIDTH 567 0
DWIDTH 18 0
BBX 4 3 9 18
BITMAP
70
F0
40
ENDCHAR
STARTCHAR ring
ENCODING 730
SWIDTH 567 0
DWIDTH 18 0
BBX 4 3 9 18
BITMAP
F0
90
F0
ENDCHAR
STARTCHAR ogonek
ENCODING 731
SWIDTH 567 0
DWIDTH 18 0
BBX 8 5 7 -4
BITMAP
60
C0
E3
FC
20
ENDCHAR
STARTCHAR tilde
ENCODING 732
SWIDTH 567 0
DWIDTH 18 0
BBX 10 3 6 18
BITMAP
7CC0
FFC0
8100
ENDCHAR
STARTCHAR hungarumlaut
ENCODING 733
SWIDTH 567 0
DWIDTH 18 0
BBX 10 4 6 18
BITMAP
0840
39C0
7BC0
E700
ENDCHAR
STARTCHAR endash
ENCODING 8211
SWIDTH 353 0
DWIDTH 11 0
BBX 12 3 -1 8
BITMAP
7FF0
7FF0
8000
ENDCHAR
STARTCHAR emdash
ENCODING 8212
SWIDTH 508 0
DWIDTH 16 0
BBX 16 2 0 9
BITMAP
FFFF
FFFF
ENDCHAR
STARTCHAR quoteleft
ENCODING 8216
SWIDTH 155 0
DWIDTH 5 0
BBX 4 7 1 15
BITMAP
10
30
60
60
F0
F0
70
ENDCHAR
STARTCHAR quoteright
ENCODING 8217
SWIDTH 154 0
DWIDTH 5 0
BBX 4 7 2 15
BITMAP
20
F0
F0
F0
60
60
C0
ENDCHAR
STARTCHAR quotesinglbase
ENCODING 8218
SWIDTH 188 0
DWIDTH 6 0
BBX 4 7 -1 -4
BITMAP
60
F0
F0
60
60
40
80
ENDCHAR
STARTCHAR quotedblleft
ENCODING 8220
SWIDTH 289 0
DWIDTH 9 0
BBX 8 7 1 15
BITMAP
11
33
62
66
F7
F7
77
ENDCHAR
STARTCHAR quotedblright
ENCODING 8221
SWIDTH 288 0
DWIDTH 9 0
BBX 8 7 2 15
BITMAP
63
FF
FF
F7
62
66
CC
ENDCHAR
STARTCHAR quotedblbase
ENCODING 8222
SWIDTH 323 0
DWIDTH 10 0
BBX 8 7 -1 -4
BITMAP
67
FF
FF
62
66
44
88
ENDCHAR
STARTCHAR bullet
ENCODING 8226
SWIDTH 180 0
DWIDTH 6 0
BBX 5 8 0 5
BITMAP
10
78
F8
F8
F8
F0
F0
40
ENDCHAR
STARTCHAR ellipsis
ENCODING 8230
SWIDTH 614 0
DWIDTH 20 0
BBX 17 3 -1 -1
BITMAP
71E780
F3C780
E18600
ENDCHAR
STARTCHAR perthousand
ENCODING 8240
SWIDTH 851 0
DWIDTH 27 0
BBX 26 25 0 -1
BITMAP
00002000
0F00C000
1D818000
39838000
30C70000
31C60000
618C0000
619C0000
61980000
73300000
3E700000
1C600000
00C00000
01C60200
019F0F80
03399CC0
073198C0
0661B0C0
0C61B0C0
1C61B0C0
38633180
30633180
70663300
E03C1E00
80100800
ENDCHAR
STARTCHAR guilsinglleft
ENCODING 8249
SWIDTH 202 0
DWIDTH 6 0
BBX 7 12 -1 0
BITMAP
06
0C
18
30
70
E0
E0
60
60
30
30
18
ENDCHAR
STARTCHAR guilsinglright
ENCODING 8250
SWIDTH 202 0
DWIDTH 6 0
BBX 7 12 -2 0
BITMAP
30
18
18
1C
0C
0E
0E
1C
18
30
60
C0
ENDCHAR
STARTCHAR fraction
ENCODING 8260
SWIDTH 600 0
DWIDTH 19 0
BBX 19 25 1 -1
BITMAP
000020
0001C0
000180
000300
000700
000600
000C00
001C00
001800
003000
006000
00E000
00C000
018000
038000
030000
060000
0E0000
0C0000
1C0000
380000
300000
700000
E00000
800000
ENDCHAR
STARTCHAR Euro
ENCODING 8364
SWIDTH 334 0
DWIDTH 11 0
BBX 13 19 -1 2
BITMAP
00F0
01F8
0318
0618
0E00
0C00
1C00
7F80
7FC0
B800
FF80
FF80
3000
3000
3000
3060
10C0
1B80
0E00
ENDCHAR
STARTCHAR minus
ENCODING 8722
SWIDTH 353 0
DWIDTH 11 0
BBX 12 3 -1 8
BITMAP
7FF0
7FF0
8000
ENDCHAR
STARTCHAR fi
ENCODING 64257
SWIDTH 549 0
DWIDTH 18 0
BBX 23 37 -3 -15
BITMAP
01E000
01E040
00E0E0
00E0E0
01C0C0
01C000
01C000
018000
018000
038000
038380
030380
030700
077F00
07C702
0F0606
1E060C
1C0608
1C0630
1F0E70
1B87E0
198780
19C000
38C000
30E000
30E000
30E000
70E000
60C000
60C000
61C000
E38000
E38000
EF0000
FE0000
FC0000
700000
ENDCHAR
STARTCHAR fl
ENCODING 64258
SWIDTH 516 0
DWIDTH 17 0
BBX 20 37 -3 -15
BITMAP
01E070
01E0F0
00E0E0
00E0E0
01C0E0
01C0E0
01C0C0
0181C0
0181C0
0381C0
038180
030380
030380
077F80
07C300
0F0700
1E0700
1C0700
1C0600
1F0E00
1B8E00
198E00
19C400
38C000
30E000
30E000
30E000
70E000
60C000
60C000
61C000
E38000
E38000
EF0000
FE0000
FC0000
700000
ENDCHAR
STARTCHAR .notdef
ENCODING -1
SWIDTH 280 0
DWIDTH 9 0
BBX 1 1 0 0
BITMAP
00
ENDCHAR
ENDFONT
